<svg xmlns="http://www.w3.org/2000/svg" width="1200" height="820" viewBox="0 0 1200 820">
<defs><marker id="arrow" markerWidth="10" markerHeight="10" refX="9" refY="3" orient="auto" markerUnits="strokeWidth"><path d="M0,0 L0,6 L9,3 z" fill="#1f5aa6"/></marker></defs>
<rect width="100%" height="100%" fill="#ffffff"/>
<text x="600.0" y="52" text-anchor="middle" font-family="Arial, sans-serif" font-size="34" font-weight="700" fill="#0b3d78">图 17-1 机器人策略评测协议流程</text>
<text x="600.0" y="88" text-anchor="middle" font-family="Arial, sans-serif" font-size="18" fill="#334155">不要只看一次成功视频，而要按协议重复测试、记录 CSV、生成报告</text>
<line x1="270" y1="195" x2="330" y2="155" stroke="#1f5aa6" stroke-width="3" marker-end="url(#arrow)"/>
<line x1="270" y1="195" x2="330" y2="255" stroke="#1f5aa6" stroke-width="3" marker-end="url(#arrow)"/>
<line x1="270" y1="195" x2="330" y2="355" stroke="#1f5aa6" stroke-width="3" marker-end="url(#arrow)"/>
<line x1="270" y1="195" x2="330" y2="455" stroke="#1f5aa6" stroke-width="3" marker-end="url(#arrow)"/>
<line x1="540" y1="155" x2="650" y2="300" stroke="#1f5aa6" stroke-width="3" marker-end="url(#arrow)"/>
<line x1="540" y1="255" x2="650" y2="300" stroke="#1f5aa6" stroke-width="3" marker-end="url(#arrow)"/>
<line x1="540" y1="355" x2="650" y2="300" stroke="#1f5aa6" stroke-width="3" marker-end="url(#arrow)"/>
<line x1="540" y1="455" x2="650" y2="300" stroke="#1f5aa6" stroke-width="3" marker-end="url(#arrow)"/>
<line x1="870" y1="300" x2="930" y2="300" stroke="#1f5aa6" stroke-width="3" marker-end="url(#arrow)"/>
<rect x="70" y="150" width="200" height="90" rx="18" fill="#eaf2ff" stroke="#1f5aa6" stroke-width="2"/>
<text x="170.0" y="183.0" text-anchor="middle" font-family="Arial, sans-serif" font-size="18" fill="#0f172a">policy_v1</text>
<text x="170.0" y="208.0" text-anchor="middle" font-family="Arial, sans-serif" font-size="18" fill="#0f172a">待评测策略</text>
<rect x="330" y="120" width="210" height="70" rx="18" fill="#f8fbff" stroke="#1f5aa6" stroke-width="2"/>
<text x="435.0" y="143.0" text-anchor="middle" font-family="Arial, sans-serif" font-size="18" fill="#0f172a">固定位置测试</text>
<text x="435.0" y="168.0" text-anchor="middle" font-family="Arial, sans-serif" font-size="18" fill="#0f172a">Fixed</text>
<rect x="330" y="220" width="210" height="70" rx="18" fill="#f8fbff" stroke="#1f5aa6" stroke-width="2"/>
<text x="435.0" y="243.0" text-anchor="middle" font-family="Arial, sans-serif" font-size="18" fill="#0f172a">随机位置测试</text>
<text x="435.0" y="268.0" text-anchor="middle" font-family="Arial, sans-serif" font-size="18" fill="#0f172a">Random Pose</text>
<rect x="330" y="320" width="210" height="70" rx="18" fill="#f8fbff" stroke="#1f5aa6" stroke-width="2"/>
<text x="435.0" y="343.0" text-anchor="middle" font-family="Arial, sans-serif" font-size="18" fill="#0f172a">光照变化测试</text>
<text x="435.0" y="368.0" text-anchor="middle" font-family="Arial, sans-serif" font-size="18" fill="#0f172a">Lighting</text>
<rect x="330" y="420" width="210" height="70" rx="18" fill="#f8fbff" stroke="#1f5aa6" stroke-width="2"/>
<text x="435.0" y="443.0" text-anchor="middle" font-family="Arial, sans-serif" font-size="18" fill="#0f172a">物体扰动测试</text>
<text x="435.0" y="468.0" text-anchor="middle" font-family="Arial, sans-serif" font-size="18" fill="#0f172a">Object Shift</text>
<rect x="650" y="250" width="220" height="100" rx="18" fill="#fff7ed" stroke="#e08d1f" stroke-width="2"/>
<text x="760.0" y="288.0" text-anchor="middle" font-family="Arial, sans-serif" font-size="18" fill="#0f172a">评测 CSV</text>
<text x="760.0" y="313.0" text-anchor="middle" font-family="Arial, sans-serif" font-size="18" fill="#0f172a">每次 trial 一行</text>
<rect x="930" y="250" width="210" height="100" rx="18" fill="#ecfdf5" stroke="#16834a" stroke-width="2"/>
<text x="1035.0" y="288.0" text-anchor="middle" font-family="Arial, sans-serif" font-size="18" fill="#0f172a">评测报告</text>
<text x="1035.0" y="313.0" text-anchor="middle" font-family="Arial, sans-serif" font-size="18" fill="#0f172a">指标 + 失败分布</text>
</svg>