<svg xmlns="http://www.w3.org/2000/svg" width="1200" height="820" viewBox="0 0 1200 820">
<defs><marker id="arrow" markerWidth="10" markerHeight="10" refX="9" refY="3" orient="auto" markerUnits="strokeWidth"><path d="M0,0 L0,6 L9,3 z" fill="#1f5aa6"/></marker></defs>
<rect width="100%" height="100%" fill="#ffffff"/>
<text x="600.0" y="52" text-anchor="middle" font-family="Arial, sans-serif" font-size="34" font-weight="700" fill="#0b3d78">图 18-2 失败回收、补采数据与 policy_v2 闭环</text>
<text x="600.0" y="88" text-anchor="middle" font-family="Arial, sans-serif" font-size="18" fill="#334155">失败不是噪声，而是下一轮数据与策略改进的入口</text>
<line x1="260" y1="190" x2="330" y2="190" stroke="#1f5aa6" stroke-width="3" marker-end="url(#arrow)"/>
<line x1="510" y1="190" x2="580" y2="190" stroke="#1f5aa6" stroke-width="3" marker-end="url(#arrow)"/>
<line x1="760" y1="190" x2="830" y2="190" stroke="#1f5aa6" stroke-width="3" marker-end="url(#arrow)"/>
<line x1="920" y1="230" x2="920" y2="350" stroke="#1f5aa6" stroke-width="3" marker-end="url(#arrow)"/>
<line x1="830" y1="390" x2="760" y2="390" stroke="#1f5aa6" stroke-width="3" marker-end="url(#arrow)"/>
<line x1="580" y1="390" x2="510" y2="390" stroke="#1f5aa6" stroke-width="3" marker-end="url(#arrow)"/>
<line x1="330" y1="390" x2="260" y2="390" stroke="#1f5aa6" stroke-width="3" marker-end="url(#arrow)"/>
<line x1="170" y1="350" x2="170" y2="230" stroke="#1f5aa6" stroke-width="3" marker-end="url(#arrow)"/>
<line x1="500" y1="430" x2="600" y2="590" stroke="#1f5aa6" stroke-width="3" marker-end="url(#arrow)"/>
<rect x="80" y="150" width="180" height="80" rx="18" fill="#fff1f2" stroke="#be123c" stroke-width="2"/>
<text x="170.0" y="178.0" text-anchor="middle" font-family="Arial, sans-serif" font-size="18" fill="#0f172a">评测失败样本</text>
<text x="170.0" y="203.0" text-anchor="middle" font-family="Arial, sans-serif" font-size="18" fill="#0f172a">Eval CSV</text>
<rect x="330" y="150" width="180" height="80" rx="18" fill="#eef2ff" stroke="#4f46e5" stroke-width="2"/>
<text x="420.0" y="178.0" text-anchor="middle" font-family="Arial, sans-serif" font-size="18" fill="#0f172a">失败分类</text>
<text x="420.0" y="203.0" text-anchor="middle" font-family="Arial, sans-serif" font-size="18" fill="#0f172a">Taxonomy</text>
<rect x="580" y="150" width="180" height="80" rx="18" fill="#fef3c7" stroke="#ca8a04" stroke-width="2"/>
<text x="670.0" y="178.0" text-anchor="middle" font-family="Arial, sans-serif" font-size="18" fill="#0f172a">补采计划</text>
<text x="670.0" y="203.0" text-anchor="middle" font-family="Arial, sans-serif" font-size="18" fill="#0f172a">Data Plan</text>
<rect x="830" y="150" width="180" height="80" rx="18" fill="#ecfdf5" stroke="#16834a" stroke-width="2"/>
<text x="920.0" y="178.0" text-anchor="middle" font-family="Arial, sans-serif" font-size="18" fill="#0f172a">dataset_v1</text>
<text x="920.0" y="203.0" text-anchor="middle" font-family="Arial, sans-serif" font-size="18" fill="#0f172a">针对性数据</text>
<rect x="830" y="350" width="180" height="80" rx="18" fill="#eaf2ff" stroke="#1f5aa6" stroke-width="2"/>
<text x="920.0" y="378.0" text-anchor="middle" font-family="Arial, sans-serif" font-size="18" fill="#0f172a">训练 policy_v2</text>
<text x="920.0" y="403.0" text-anchor="middle" font-family="Arial, sans-serif" font-size="18" fill="#0f172a">Retrain</text>
<rect x="580" y="350" width="180" height="80" rx="18" fill="#f8fbff" stroke="#1f5aa6" stroke-width="2"/>
<text x="670.0" y="378.0" text-anchor="middle" font-family="Arial, sans-serif" font-size="18" fill="#0f172a">重新评测</text>
<text x="670.0" y="403.0" text-anchor="middle" font-family="Arial, sans-serif" font-size="18" fill="#0f172a">Compare</text>
<rect x="330" y="350" width="180" height="80" rx="18" fill="#f8fbff" stroke="#1f5aa6" stroke-width="2"/>
<text x="420.0" y="378.0" text-anchor="middle" font-family="Arial, sans-serif" font-size="18" fill="#0f172a">v1/v2 对比</text>
<text x="420.0" y="403.0" text-anchor="middle" font-family="Arial, sans-serif" font-size="18" fill="#0f172a">指标表</text>
<rect x="80" y="350" width="180" height="80" rx="18" fill="#eaf2ff" stroke="#1f5aa6" stroke-width="2"/>
<text x="170.0" y="378.0" text-anchor="middle" font-family="Arial, sans-serif" font-size="18" fill="#0f172a">进入下一轮</text>
<text x="170.0" y="403.0" text-anchor="middle" font-family="Arial, sans-serif" font-size="18" fill="#0f172a">闭环迭代</text>
<rect x="390" y="590" width="420" height="90" rx="18" fill="#f1f5f9" stroke="#334155" stroke-width="2"/>
<text x="600.0" y="623.0" text-anchor="middle" font-family="Arial, sans-serif" font-size="18" fill="#0f172a">目标：用失败样本驱动数据增长</text>
<text x="600.0" y="648.0" text-anchor="middle" font-family="Arial, sans-serif" font-size="18" fill="#0f172a">而不是盲目扩大数据规模</text>
</svg>