<svg xmlns="http://www.w3.org/2000/svg" width="1200" height="820" viewBox="0 0 1200 820">
<defs><marker id="arrow" markerWidth="10" markerHeight="10" refX="9" refY="3" orient="auto" markerUnits="strokeWidth"><path d="M0,0 L0,6 L9,3 z" fill="#1f5aa6"/></marker></defs>
<rect width="100%" height="100%" fill="#ffffff"/>
<text x="600.0" y="52" text-anchor="middle" font-family="Arial, sans-serif" font-size="34" font-weight="700" fill="#0b3d78">图 17-2 评测指标关系图</text>
<text x="600.0" y="88" text-anchor="middle" font-family="Arial, sans-serif" font-size="18" fill="#334155">成功率只是入口，安全、效率、干预率和失败分布同样重要</text>
<line x1="205" y1="260" x2="355" y2="360" stroke="#1f5aa6" stroke-width="3" marker-end="url(#arrow)"/>
<line x1="485" y1="260" x2="665" y2="360" stroke="#1f5aa6" stroke-width="3" marker-end="url(#arrow)"/>
<line x1="765" y1="260" x2="665" y2="360" stroke="#1f5aa6" stroke-width="3" marker-end="url(#arrow)"/>
<line x1="1045" y1="260" x2="975" y2="360" stroke="#1f5aa6" stroke-width="3" marker-end="url(#arrow)"/>
<line x1="480" y1="480" x2="600" y2="610" stroke="#1f5aa6" stroke-width="3" marker-end="url(#arrow)"/>
<line x1="665" y1="480" x2="600" y2="610" stroke="#1f5aa6" stroke-width="3" marker-end="url(#arrow)"/>
<line x1="975" y1="480" x2="600" y2="610" stroke="#1f5aa6" stroke-width="3" marker-end="url(#arrow)"/>
<rect x="90" y="140" width="230" height="120" rx="18" fill="#ecfdf5" stroke="#16834a" stroke-width="2"/>
<text x="205.0" y="176.0" text-anchor="middle" font-family="Arial, sans-serif" font-size="18" fill="#0f172a">Success Rate</text>
<text x="205.0" y="201.0" text-anchor="middle" font-family="Arial, sans-serif" font-size="18" fill="#0f172a">成功率</text>
<text x="205.0" y="226.0" text-anchor="middle" font-family="Arial, sans-serif" font-size="18" fill="#0f172a">完成任务比例</text>
<rect x="370" y="140" width="230" height="120" rx="18" fill="#f8fbff" stroke="#1f5aa6" stroke-width="2"/>
<text x="485.0" y="176.0" text-anchor="middle" font-family="Arial, sans-serif" font-size="18" fill="#0f172a">Completion Time</text>
<text x="485.0" y="201.0" text-anchor="middle" font-family="Arial, sans-serif" font-size="18" fill="#0f172a">完成时间</text>
<text x="485.0" y="226.0" text-anchor="middle" font-family="Arial, sans-serif" font-size="18" fill="#0f172a">效率指标</text>
<rect x="650" y="140" width="230" height="120" rx="18" fill="#fff7ed" stroke="#e08d1f" stroke-width="2"/>
<text x="765.0" y="176.0" text-anchor="middle" font-family="Arial, sans-serif" font-size="18" fill="#0f172a">Collision Rate</text>
<text x="765.0" y="201.0" text-anchor="middle" font-family="Arial, sans-serif" font-size="18" fill="#0f172a">碰撞率</text>
<text x="765.0" y="226.0" text-anchor="middle" font-family="Arial, sans-serif" font-size="18" fill="#0f172a">安全指标</text>
<rect x="930" y="140" width="230" height="120" rx="18" fill="#fff1f2" stroke="#be123c" stroke-width="2"/>
<text x="1045.0" y="176.0" text-anchor="middle" font-family="Arial, sans-serif" font-size="18" fill="#0f172a">Drop Rate</text>
<text x="1045.0" y="201.0" text-anchor="middle" font-family="Arial, sans-serif" font-size="18" fill="#0f172a">掉落率</text>
<text x="1045.0" y="226.0" text-anchor="middle" font-family="Arial, sans-serif" font-size="18" fill="#0f172a">操作稳定性</text>
<rect x="230" y="360" width="250" height="120" rx="18" fill="#f1f5f9" stroke="#475569" stroke-width="2"/>
<text x="355.0" y="396.0" text-anchor="middle" font-family="Arial, sans-serif" font-size="18" fill="#0f172a">Intervention Rate</text>
<text x="355.0" y="421.0" text-anchor="middle" font-family="Arial, sans-serif" font-size="18" fill="#0f172a">干预率</text>
<text x="355.0" y="446.0" text-anchor="middle" font-family="Arial, sans-serif" font-size="18" fill="#0f172a">自主性指标</text>
<rect x="540" y="360" width="250" height="120" rx="18" fill="#eef2ff" stroke="#4f46e5" stroke-width="2"/>
<text x="665.0" y="396.0" text-anchor="middle" font-family="Arial, sans-serif" font-size="18" fill="#0f172a">Failure Reason</text>
<text x="665.0" y="421.0" text-anchor="middle" font-family="Arial, sans-serif" font-size="18" fill="#0f172a">失败原因分布</text>
<text x="665.0" y="446.0" text-anchor="middle" font-family="Arial, sans-serif" font-size="18" fill="#0f172a">定位改进方向</text>
<rect x="850" y="360" width="250" height="120" rx="18" fill="#f0fdfa" stroke="#0f766e" stroke-width="2"/>
<text x="975.0" y="396.0" text-anchor="middle" font-family="Arial, sans-serif" font-size="18" fill="#0f172a">Generalization</text>
<text x="975.0" y="421.0" text-anchor="middle" font-family="Arial, sans-serif" font-size="18" fill="#0f172a">泛化评测</text>
<text x="975.0" y="446.0" text-anchor="middle" font-family="Arial, sans-serif" font-size="18" fill="#0f172a">位置/光照/物体</text>
<rect x="425" y="610" width="350" height="100" rx="18" fill="#eaf2ff" stroke="#1f5aa6" stroke-width="2"/>
<text x="600.0" y="648.0" text-anchor="middle" font-family="Arial, sans-serif" font-size="18" fill="#0f172a">最终结论</text>
<text x="600.0" y="673.0" text-anchor="middle" font-family="Arial, sans-serif" font-size="18" fill="#0f172a">是否进入下一轮数据闭环</text>
</svg>